<svg xmlns="http://www.w3.org/2000/svg" viewBox="0 0 48 48"><defs><style>.cls-1{fill:none;}</style></defs><title>icon_2</title><g id="Layer_2" data-name="Layer 2"><g id="Layer_1-2" data-name="Layer 1"><path d="M17.68,20a.65.65,0,0,0,.34.69.63.63,0,0,0,.75-.14c1.44-1.58,2.92-3.83,2.16-5.89-1.15-3.11-2.28-4.49-1.78-6.83A.34.34,0,0,0,19,7.43a.34.34,0,0,0-.41.1,7.71,7.71,0,0,0-1.82,5.91c.4,3,1.31,4.59.94,6.54Z"/><path d="M9.29,21.7a.62.62,0,0,0,.34.68.63.63,0,0,0,.75-.14c1.44-1.57,2.92-3.83,2.16-5.88-1.15-3.11-2.28-4.49-1.78-6.83a.34.34,0,0,0-.18-.38.34.34,0,0,0-.41.09,7.77,7.77,0,0,0-1.83,5.92c.41,3,1.32,4.58.95,6.54Z"/><path d="M26.07,21.08a.64.64,0,0,0,.34.68.63.63,0,0,0,.75-.14c1.44-1.58,2.92-3.83,2.16-5.89C28.17,12.62,27,11.24,27.54,8.9a.32.32,0,0,0-.18-.37.34.34,0,0,0-.41.09,7.75,7.75,0,0,0-1.82,5.91c.41,3,1.31,4.59.94,6.55Z"/><path d="M44.91,27.15H1.37A1.37,1.37,0,0,0,0,28.74C1.12,35.42,9.11,40.6,18.8,40.6,26.85,40.6,33.73,37,36.46,32l7.95,1.3a3.06,3.06,0,0,0,2.5-.69,3.09,3.09,0,0,0-2-5.44Z"/><rect class="cls-1" width="48" height="48"/></g></g></svg>