<svg xmlns="http://www.w3.org/2000/svg" viewBox="0 0 48 48"><title>icon_1</title><g id="Layer_2" data-name="Layer 2"><g id="Layer_1-2" data-name="Layer 1"><path d="M24,0A24,24,0,0,0,13.67,45.66,24.46,24.46,0,0,0,17.28,47,24,24,0,0,0,24,48c.48,0,.95,0,1.42,0a22.55,22.55,0,0,0,3.3-.42,24.06,24.06,0,0,0,9.44-4.17A24,24,0,0,0,24,0ZM38.16,39.47V38.06c0-1,0-25,0-25h-.55s-4.47,2.52-4.47,21.22c3.44.94,2,4.69,1.73,5.17,0,.27,0,1.24,0,2.49a20.79,20.79,0,0,1-6.13,2.51V34.34c0-1-1.84-5.24,1.23-8.37l0,0a4.26,4.26,0,0,0,1.32-2.8v-.27l-1.05-9.13h-1l.29,10.17H28.39V13.75h-.86V24h-1V13.75h-.94V24H24.48l.33-10.24h-.89l-1.08,8.66s0,.32,0,.45a4.23,4.23,0,0,0,1.58,3.3c3.2,3.61,1,7.28,1,8.15V44.93C25,45,24.48,45,24,45a21,21,0,0,1-6.72-1.12V34.24c-.76-2.06-1.47-5.62-.39-7.13,2-.6,4.21-3.27,4.22-7s-2-7.14-5.59-7.2h-.09c-3.58.06-5.59,3.48-5.59,7.2s2.25,6.42,4.22,7c1.08,1.51.37,5.07-.39,7.13v8a21,21,0,1,1,24.49-2.79ZM12.21,21.57a4.93,4.93,0,0,0,.2.8c.09.27.18.53.29.79.2.51.42,1,.6,1.4s.36.74.49,1,.24.34.25.33a.82.82,0,0,1-.39-.21,5.41,5.41,0,0,1-.8-.8,9.3,9.3,0,0,1-.91-1.33,8,8,0,0,1-.41-.83,4.66,4.66,0,0,1-.28-.94,6.1,6.1,0,0,1,0-1.9,8.62,8.62,0,0,1,.33-1.57A6.64,6.64,0,0,1,12,17.22a2.25,2.25,0,0,1,.23-.37s0,.16,0,.42,0,.65,0,1.1A19.53,19.53,0,0,0,12.21,21.57Z"/></g></g></svg>