<?xml version="1.0" encoding="utf-8"?>
<!-- Generator: Adobe Illustrator 23.0.1, SVG Export Plug-In . SVG Version: 6.00 Build 0)  -->
<svg version="1.1" id="Layer_1" xmlns="http://www.w3.org/2000/svg" xmlns:xlink="http://www.w3.org/1999/xlink" x="0px" y="0px"
	 viewBox="0 0 48 48" style="enable-background:new 0 0 48 48;" xml:space="preserve">
<style type="text/css">
	.st0{fill:#A08D2C;}
</style>
<title>profile</title>
<g>
	<g id="Layer_1-2">
		<path class="st0" d="M48,24C48,10.7,37.3,0,24,0S0,10.7,0,24c0,6.7,2.8,13.2,7.8,17.7l0,0l0.8,0.7l0.1,0.1c0.4,0.3,0.9,0.7,1.3,1
			l0.4,0.3c0.5,0.3,0.9,0.6,1.4,0.9l0.3,0.2c0.5,0.3,1.1,0.6,1.6,0.9l0.1,0c1.8,0.9,3.8,1.5,5.8,1.8h0.2c0.6,0.1,1.3,0.2,1.9,0.3
			h0.2C22.7,48,23.3,48,24,48c0.7,0,1.3,0,1.9-0.1h0.2c0.6-0.1,1.3-0.2,1.9-0.2h0.2c2-0.4,3.9-1,5.8-1.8l0.2-0.1
			c0.5-0.2,1.1-0.5,1.6-0.8l0.4-0.2c0.5-0.3,0.9-0.6,1.4-0.9l0.5-0.3c0.4-0.3,0.8-0.6,1.1-0.9c0.1-0.1,0.2-0.1,0.2-0.2l0.8-0.7l0,0
			C45.2,37.2,48,30.8,48,24z M1.8,24C1.7,11.7,11.7,1.7,24,1.7c12.3,0,22.3,9.9,22.3,22.2c0,6.4-2.7,12.4-7.5,16.7
			c-0.2-0.2-0.5-0.3-0.8-0.5l-7.4-3.7c-0.7-0.3-1.1-1-1.1-1.7v-2.6c0.2-0.2,0.4-0.5,0.5-0.7c1-1.4,1.7-2.9,2.3-4.4
			c1.1-0.5,1.8-1.6,1.8-2.9V21c0-0.8-0.3-1.5-0.8-2.1v-4.1c0.2-1.9-0.4-3.7-1.6-5.1C30.1,7.9,27.5,7,24,7s-6.1,0.9-7.7,2.8
			c-1.2,1.4-1.8,3.3-1.6,5.1V19c-0.5,0.6-0.8,1.3-0.8,2v3.1c0,1,0.4,1.9,1.2,2.5c0.5,2,1.5,3.9,2.7,5.6v2.5c0,0.7-0.4,1.4-1,1.7
			l-6.9,3.8c-0.2,0.1-0.4,0.3-0.7,0.4C4.4,36.3,1.7,30.3,1.8,24z"/>
	</g>
</g>
</svg>
